<?xml version="1.0" encoding="UTF-8" standalone="no"?>
<svg
   xmlns:dc="http://purl.org/dc/elements/1.1/"
   xmlns:cc="http://creativecommons.org/ns#"
   xmlns:rdf="http://www.w3.org/1999/02/22-rdf-syntax-ns#"
   xmlns:svg="http://www.w3.org/2000/svg"
   xmlns="http://www.w3.org/2000/svg"
   xmlns:sodipodi="http://sodipodi.sourceforge.net/DTD/sodipodi-0.dtd"
   xmlns:inkscape="http://www.inkscape.org/namespaces/inkscape"
   version="1.1"
   x="0px"
   y="0px"
   viewBox="0 0 70 90"
   enable-background="new 0 0 90 90"
   xml:space="preserve"
   id="svg8"
   sodipodi:docname="paper.svg"
   inkscape:version="0.92.5 (2060ec1f9f, 2020-04-08)"
   width="70"
   height="90"><metadata
     id="metadata14"><rdf:RDF><cc:Work
         rdf:about=""><dc:format>image/svg+xml</dc:format><dc:type
           rdf:resource="http://purl.org/dc/dcmitype/StillImage" /><dc:title></dc:title></cc:Work></rdf:RDF></metadata><defs
     id="defs12" /><sodipodi:namedview
     pagecolor="#ffffff"
     bordercolor="#666666"
     borderopacity="1"
     objecttolerance="10"
     gridtolerance="10"
     guidetolerance="10"
     inkscape:pageopacity="0"
     inkscape:pageshadow="2"
     inkscape:window-width="1920"
     inkscape:window-height="1031"
     id="namedview10"
     showgrid="true"
     inkscape:zoom="5.9334116"
     inkscape:cx="15.445627"
     inkscape:cy="32.634783"
     inkscape:window-x="0"
     inkscape:window-y="25"
     inkscape:window-maximized="1"
     inkscape:current-layer="svg8"
     showguides="true"
     fit-margin-top="0"
     fit-margin-left="0"
     fit-margin-right="0"
     fit-margin-bottom="0"><inkscape:grid
       type="xygrid"
       id="grid9"
       originx="-11.000714"
       originy="-24.694499" /></sodipodi:namedview><path
     d="m 61.024641,20.18602 c -1.106,-0.189 -2.15,-0.168 -3.128,0.064 -0.04,-1.452 -0.108,-2.907 -0.208,-4.362 v -0.016 c -0.182,-2.154 -1.068,-3.939 -2.661,-5.357 -1.641,-1.4630003 -3.55,-2.1220003 -5.728,-1.9720003 -1.719,0.115 -3.215,0.708 -4.49,1.7790003 -0.113,-0.8130003 -0.228,-1.3650003 -0.337,-1.6520003 l -0.015,-0.032 c -0.849,-2.2719996 -2.313,-4.0099996 -4.396,-5.2129996 l -0.016,-0.015 c -2.252,-1.323 -4.696,-1.414 -7.33,-0.273 h 0.017 c -2.679,1.063 -4.303,3.367 -4.875,6.9129999 v -0.032 c -0.099,0.519 -0.172,1.09 -0.225,1.716 -0.236,-0.152 -0.489,-0.291 -0.753,-0.417 l -0.033,-0.016 c -1.94,-0.879 -3.922,-0.981 -5.95,-0.305 -0.012,0.006 -0.029,0.011 -0.047,0.016 -2.021,0.734 -3.513,2.028 -4.474,3.881 v -0.016 c -0.919,1.615 -1.245,3.877 -0.979,6.783 h -0.016 c 0.172,2.112 2.09,10.863 5.757,26.255 -0.075,-0.043 -0.15,-0.085 -0.224,-0.128 h 0.016 c -1.881,-1.11 -3.949,-1.96 -6.207,-2.551 l 0.016,0.016 c -2.521,-0.703 -5.2090002,-0.457 -8.0660002,0.738 -3.391,1.386 -4.846,3.984 -4.363,7.794 v 0.018 c 0.361,3.669 2.793,6.043 7.297,7.119 2.8720002,0.679 4.7750002,1.353 5.7090002,2.021 l 0.017,0.016 c 0.843,0.742 1.741,1.955 2.694,3.641 0.005,0.012 0.009,0.022 0.016,0.032 1.314,2.41 3.313,4.287 5.998,5.629 h -0.016 c 0.792,0.407 1.604,0.765 2.438,1.075 -0.867,1.336 -1.257,2.501 -1.171,3.496 -0.13,3.317 1.831,5.968 5.885,7.955 l -0.016,-0.017 c 2.762,1.398 5.825,2.308 9.19,2.727 h 0.017 c 3.398,0.408 6.81,0.033 10.231,-1.122 l 0.017,-0.017 c 4.034,-1.293 6.138,-4.545 6.301,-9.75 0.012,-0.277 -0.026,-0.532 -0.111,-0.771 7.77,-4.415 9.989,-13.257 6.657,-26.527 2.176,-6.684 3.603,-13.575 4.281,-20.673 v -0.015 c 0.193,-2.01 -0.369,-3.838 -1.685,-5.485 -1.323,-1.647 -3.001,-2.631 -5.034,-2.95 z m -1.972,28.323 c -0.138,0.42 -0.149,0.843 -0.034,1.267 3.413,13.039 0.593,20.988 -8.467,23.848 -0.584,0.172 -1.022,0.524 -1.315,1.059 -0.292,0.538 -0.351,1.1 -0.177,1.685 0.17,0.583 0.523,1.021 1.06,1.314 0.537,0.293 1.099,0.352 1.683,0.178 0.199,-0.056 0.396,-0.115 0.594,-0.178 -0.332,2.283 -1.405,3.786 -3.224,4.508 l 0.017,-0.017 c -2.773,0.938 -5.537,1.249 -8.292,0.931 -2.835,-0.351 -5.419,-1.109 -7.746,-2.277 l -0.017,-0.017 c -2.149,-1.052 -3.289,-2.377 -3.417,-3.978 0.111,-0.569 0.56,-1.328 1.349,-2.277 0.325,0.056 0.651,0.104 0.977,0.145 0.605,0.075 1.15,-0.075 1.637,-0.449 0.481,-0.377 0.759,-0.869 0.834,-1.476 0.077,-0.605 -0.074,-1.15 -0.449,-1.635 -0.377,-0.482 -0.869,-0.76 -1.475,-0.835 -2.346,-0.288 -4.527,-0.95 -6.543,-1.988 h -0.017 c -1.837,-0.918 -3.212,-2.196 -4.122,-3.835 l -0.015,-0.03 c -1.302,-2.308 -2.554,-3.942 -3.753,-4.908 l -0.016,-0.017 c -1.168,-1.034 -3.666,-2.001 -7.491,-2.902 -2.2910002,-0.547 -3.6020002,-1.675 -3.9290002,-3.384 v -0.016 c -0.197,-1.527 0.358,-2.58 1.669,-3.16 1.8480002,-0.771 3.5850002,-0.955 5.2130002,-0.545 l 0.015,0.017 c 1.848,0.479 3.543,1.168 5.084,2.068 h 0.016 c 1.898,1.107 3.576,1.787 5.036,2.037 0.044,0.014 0.086,0.024 0.127,0.032 0.083,0.015 0.17,0.025 0.257,0.031 0.706,0.051 2.027,0.028 3.961,-0.063 h 0.032 c 1.522,-0.056 3.43,0.414 5.726,1.411 v 0.016 c 2.246,1.016 4.067,2.957 5.47,5.822 0.268,0.547 0.689,0.921 1.267,1.123 0.573,0.202 1.136,0.17 1.683,-0.096 0.55,-0.27 0.924,-0.692 1.124,-1.269 0.201,-0.571 0.169,-1.133 -0.097,-1.683 -1.938,-3.978 -4.496,-6.635 -7.683,-7.972 v 0.017 c -3.077,-1.349 -5.649,-1.947 -7.713,-1.797 h -0.032 c -0.711,0.033 -1.327,0.055 -1.844,0.064 -3.945,-16.499 -6.014,-25.834 -6.207,-28.002 h -0.017 c -0.161,-1.841 0.004,-3.279 0.498,-4.315 v -0.016 c 0.442,-0.828 1.114,-1.41 2.02,-1.748 0.017,-0.005 0.032,-0.011 0.048,-0.016 0.896,-0.287 1.773,-0.238 2.631,0.144 0.011,0.006 0.022,0.011 0.033,0.017 0.787,0.382 1.331,0.98 1.636,1.795 l -0.016,-0.015 c 0.48,1.325 0.918,2.662 1.314,4.009 0.01,0.041 0.021,0.083 0.033,0.128 0.074,0.209 0.249,0.792 0.528,1.749 0.008,0.047 0.019,0.096 0.033,0.144 1.35,4.628 2.606,10.803 3.769,18.523 0.089,0.608 0.377,1.094 0.866,1.46 0.496,0.361 1.046,0.495 1.652,0.401 0.6,-0.088 1.082,-0.378 1.444,-0.866 0.36,-0.491 0.493,-1.037 0.4,-1.636 -1.184,-7.938 -2.466,-14.295 -3.849,-19.068 -0.814,-5.014 -1.019,-8.741 -0.609,-11.179 v -0.032 c 0.283,-1.7600003 1.031,-2.9410003 2.245,-3.5449999 h 0.017 c 1.215,-0.526 2.342,-0.511 3.384,0.048 l -0.02,-0.014 c 1.159,0.6719996 1.979,1.6399996 2.454,2.9029999 0.513,1.614 1.206,11.708 2.086,30.279 -0.002,0.026 -0.002,0.053 0,0.08 0.025,0.596 0.26,1.098 0.706,1.507 0.445,0.415 0.97,0.612 1.571,0.594 0.604,-0.021 1.119,-0.25 1.539,-0.69 0.418,-0.436 0.62,-0.956 0.61,-1.556 0,-0.027 0,-0.053 0,-0.08 -0.235,-14.926 -0.374,-22.784 -0.418,-23.576 v -0.032 c -0.067,-0.95 0.198,-1.784 0.801,-2.502 l 0.017,-0.016 c 0.637,-0.724 1.429,-1.12 2.375,-1.187 0.944,-0.065 1.773,0.219 2.486,0.85 0.709,0.632 1.105,1.429 1.186,2.389 0.105,1.502 0.182,3.005 0.226,4.507 0.019,1.065 0.031,2.161 0.031,3.288 -0.009,0.104 -0.009,0.212 0,0.321 -0.007,5.433 -0.387,11.67 -1.138,18.715 -0.065,0.605 0.096,1.145 0.48,1.621 0.381,0.478 0.873,0.751 1.475,0.818 0.604,0.064 1.145,-0.096 1.62,-0.481 0.477,-0.381 0.751,-0.873 0.817,-1.476 0.74,-6.907 1.13,-13.061 1.171,-18.459 0.015,-0.009 0.031,-0.02 0.049,-0.033 0.672,-0.469 1.442,-0.628 2.31,-0.481 h 0.016 c 0.918,0.151 1.677,0.601 2.277,1.348 0.563,0.702 0.814,1.477 0.754,2.326 -0.671,6.971 -2.104,13.733 -4.297,20.288 z"
     id="path2"
     inkscape:connector-curvature="0" /></svg>