<?xml version="1.0" encoding="UTF-8" standalone="no"?>
<svg
   xmlns:dc="http://purl.org/dc/elements/1.1/"
   xmlns:cc="http://creativecommons.org/ns#"
   xmlns:rdf="http://www.w3.org/1999/02/22-rdf-syntax-ns#"
   xmlns:svg="http://www.w3.org/2000/svg"
   xmlns="http://www.w3.org/2000/svg"
   xmlns:sodipodi="http://sodipodi.sourceforge.net/DTD/sodipodi-0.dtd"
   xmlns:inkscape="http://www.inkscape.org/namespaces/inkscape"
   version="1.1"
   x="0px"
   y="0px"
   viewBox="0 0 70 90"
   enable-background="new 0 0 90 90"
   xml:space="preserve"
   id="svg8"
   sodipodi:docname="rock.svg"
   inkscape:version="0.92.5 (2060ec1f9f, 2020-04-08)"
   width="70"
   height="90"><metadata
     id="metadata14"><rdf:RDF><cc:Work
         rdf:about=""><dc:format>image/svg+xml</dc:format><dc:type
           rdf:resource="http://purl.org/dc/dcmitype/StillImage" /><dc:title></dc:title></cc:Work></rdf:RDF></metadata><defs
     id="defs12" /><sodipodi:namedview
     pagecolor="#ffffff"
     bordercolor="#666666"
     borderopacity="1"
     objecttolerance="10"
     gridtolerance="10"
     guidetolerance="10"
     inkscape:pageopacity="0"
     inkscape:pageshadow="2"
     inkscape:window-width="1920"
     inkscape:window-height="1031"
     id="namedview10"
     showgrid="false"
     inkscape:zoom="4.1955556"
     inkscape:cx="51.535002"
     inkscape:cy="41.214277"
     inkscape:window-x="0"
     inkscape:window-y="25"
     inkscape:window-maximized="1"
     inkscape:current-layer="svg8"
     fit-margin-top="0"
     fit-margin-left="0"
     fit-margin-right="0"
     fit-margin-bottom="0" /><path
     d="m 65.61644,32.992854 c -1.734,-2.003 -3.816,-2.992 -6.243,-2.967 -0.064,0 -0.128,0 -0.192,0 -0.347,-2.535 -1.284,-4.866 -2.813,-6.996 l -0.02,-0.02 c -2.404,-3.251 -5.301,-4.844 -8.69,-4.778 -0.811,0.002 -1.602,0.092 -2.371,0.27 -0.192,-0.296 -0.398,-0.611 -0.615,-0.944 -0.035,-0.039 -0.066,-0.078 -0.097,-0.116 -1.501,-2.146 -3.903,-3.219 -7.208,-3.218 -1.843,-0.076 -3.719,0.573 -5.626,1.946 -0.378,-0.656 -0.795,-1.285 -1.252,-1.888 -0.22,-0.314 -0.503,-0.673 -0.848,-1.08 -0.128,-0.148 -0.27,-0.283 -0.425,-0.405 -0.038,-0.029 -0.083,-0.061 -0.135,-0.097 -2.917,-3.188 -5.816,-4.75 -8.689,-4.682 -2.975,-0.167 -5.859,1.368 -8.654,4.605 l -0.018,0.02 c -4.7439997,5.298 -5.6819997,12.023 -2.8129997,20.176 -0.197,0.181 -0.396,0.367 -0.598,0.559 h 0.02 c -4.325,4.146 -6.465,8.707 -6.418,13.682 -0.095,3.513 1.677,7.509 5.319,11.986 l 0.02,0.02 c 2.049,2.653 5.2209997,4.875 9.5189997,6.667 -0.577,1.081 -0.84,2.166 -0.79,3.257 -0.157,3.985 2.199,7.171 7.073,9.559 l -0.02,-0.02 c 3.345,1.679 7.026,2.771 11.042,3.275 h 0.018 c 4.083,0.488 8.194,0.039 12.333,-1.349 l 0.02,-0.02 c 4.51,-1.444 7.007,-4.92 7.496,-10.425 1.105,-0.563 2.262,-1.296 3.469,-2.197 l 0.02,-0.019 c 4.425,-3.102 6.025,-8.317 4.798,-15.647 0.611,-0.537 1.228,-1.154 1.851,-1.851 h 0.02 c 2.744,-3.059 4.073,-6.238 3.989,-9.539 v -0.038 c -0.066,-3.379 -0.876,-5.942 -2.429,-7.689 -0.019,-0.009 -0.031,-0.022 -0.043,-0.037 z m -20.657,7.072 c 0.022,-0.038 0.048,-0.076 0.077,-0.115 0.153,-0.257 0.309,-0.514 0.462,-0.771 1.156,-1.92 1.972,-3.943 2.447,-6.07 0.349,-1.549 0.522,-3.142 0.52,-4.779 -10e-4,-1.664 -0.226,-3.257 -0.674,-4.779 1.635,0.11 3.055,0.977 4.259,2.601 l 0.02,0.02 c 1.299,1.82 1.948,3.862 1.946,6.128 -0.001,2.688 -0.709,5.194 -2.119,7.515 l 0.018,-0.02 c -1.469,2.361 -3.363,3.576 -5.685,3.642 -0.931,0.001 -1.624,-0.294 -2.08,-0.886 v -0.039 c -0.166,-0.259 -0.296,-0.548 -0.386,-0.867 0.411,-0.48 0.81,-1.007 1.195,-1.58 z m -11.369,-7.399 c 0.032,-0.107 0.057,-0.209 0.077,-0.309 0.051,-0.282 0.102,-0.565 0.153,-0.848 l -0.038,0.135 c 0.501,-2.104 0.681,-4.225 0.539,-6.359 v -0.019 c -0.074,-1.278 -0.259,-2.556 -0.559,-3.835 1.257,-1.166 2.458,-1.795 3.603,-1.889 1.256,0.002 2.212,0.329 2.872,0.983 l 0.058,0.058 c 0.012,0.02 0.025,0.038 0.039,0.058 0.23,0.358 0.456,0.692 0.675,1.002 v 0.019 c 0.25,0.352 0.476,0.68 0.674,0.983 0.016,0.032 0.035,0.064 0.058,0.096 0.059,0.151 0.136,0.298 0.231,0.443 0.032,0.104 0.069,0.207 0.115,0.308 0.709,1.498 1.063,3.11 1.06,4.837 -0.002,1.241 -0.137,2.448 -0.403,3.623 -0.348,1.572 -0.945,3.07 -1.793,4.49 -0.154,0.256 -0.309,0.513 -0.463,0.771 -0.479,0.684 -0.993,1.262 -1.541,1.734 h 0.02 c -1.145,0.962 -2.448,1.444 -3.913,1.445 -0.989,0 -1.721,-0.335 -2.196,-1.002 h -0.02 c -0.478,-0.86 -0.715,-1.979 -0.712,-3.353 0.578,-0.967 1.066,-2.091 1.464,-3.371 z m -17.845,-16.535 0.02,-0.019 c 1.518,-1.762 3.034,-2.688 4.546,-2.775 1.585,0.143 3.235,1.165 4.953,3.064 0.084,0.087 0.175,0.17 0.27,0.25 0.083,0.068 0.16,0.133 0.232,0.192 0.142,0.176 0.263,0.336 0.366,0.482 0.027,0.032 0.053,0.064 0.077,0.096 0.771,1.003 1.388,2.115 1.851,3.334 0.117,0.403 0.233,0.814 0.346,1.234 0.333,1.201 0.531,2.402 0.598,3.603 v 0.019 c 0.114,1.611 -0.015,3.21 -0.386,4.799 -0.013,0.045 -0.025,0.09 -0.038,0.135 -0.043,0.232 -0.087,0.463 -0.135,0.694 -0.074,0.231 -0.15,0.456 -0.232,0.674 -0.488,-0.886 -1.162,-1.657 -2.023,-2.312 -0.02,-0.011 -0.039,-0.023 -0.057,-0.04 -1.138,-0.855 -2.507,-1.407 -4.104,-1.657 0.22,-0.529 0.554,-1.3 1.001,-2.313 0.301,-0.677 0.32,-1.358 0.059,-2.042 -0.267,-0.68 -0.735,-1.168 -1.408,-1.464 -0.676,-0.302 -1.356,-0.321 -2.043,-0.058 -0.679,0.268 -1.167,0.736 -1.463,1.407 -1.043,2.349 -1.596,3.768 -1.658,4.258 -0.01,0.083 -0.016,0.167 -0.02,0.25 -0.009,0.099 -0.015,0.196 -0.02,0.289 -0.046,0.014 -0.092,0.026 -0.134,0.039 -0.03,0.006 -0.062,0.013 -0.096,0.02 -0.918,0.284 -1.843,0.689 -2.776,1.214 -1.483,-5.324 -0.726,-9.782 2.274,-13.373 z m 38.501,47.405 -0.02,0.02 c -2.718,2.014 -4.901,2.707 -6.552,2.082 -0.65,-0.345 -1.325,-0.41 -2.023,-0.193 -0.703,0.214 -1.229,0.644 -1.579,1.291 -0.345,0.648 -0.409,1.323 -0.192,2.023 0.215,0.702 0.646,1.229 1.29,1.58 0.962,0.598 2.002,0.945 3.122,1.04 -0.589,1.983 -1.782,3.332 -3.585,4.047 l 0.02,-0.019 c -3.356,1.128 -6.689,1.5 -10,1.118 h -0.02 c -3.377,-0.423 -6.473,-1.336 -9.289,-2.737 l -0.018,-0.019 c -2.583,-1.264 -3.952,-2.856 -4.105,-4.779 0.063,-0.47 0.281,-0.951 0.655,-1.445 1.352,0.39 2.777,0.75 4.278,1.079 0.715,0.154 1.384,0.032 2.004,-0.366 0.624,-0.394 1.015,-0.946 1.176,-1.657 0.155,-0.716 0.033,-1.384 -0.366,-2.004 -0.395,-0.622 -0.945,-1.014 -1.658,-1.175 -7.783,-1.704 -13.114,-4.267 -15.994,-7.689 l -0.02,-0.02 c -2.6659997,-3.274 -4.0479997,-6.159 -4.1429997,-8.652 0.054,-3.555 1.647,-6.831 4.7799997,-9.828 0.546,-0.527 1.093,-1.003 1.638,-1.426 0.018,-0.013 0.038,-0.025 0.057,-0.039 0.075,-0.053 0.146,-0.111 0.212,-0.174 1.347,-1.056 2.665,-1.794 3.95,-2.216 l -0.096,0.02 c 0.445,-0.126 0.888,-0.222 1.329,-0.289 0.035,0.002 0.066,0.002 0.097,0 0.241,-0.022 0.491,-0.036 0.751,-0.039 1.236,10e-4 2.258,0.271 3.063,0.81 l -0.038,-0.039 c 0.61,0.464 0.899,1.119 0.867,1.965 0.005,0.387 -0.041,0.76 -0.135,1.118 l -0.02,0.058 v 0.02 c -0.27,0.794 -0.759,1.539 -1.463,2.235 v 0.019 c -1.695,1.711 -2.91,2.958 -3.644,3.739 -0.253,0.109 -0.489,0.263 -0.712,0.462 -0.506,0.457 -0.795,1.021 -0.867,1.696 -0.075,0.678 0.084,1.294 0.482,1.85 0.403,0.551 0.937,0.898 1.599,1.041 0.95,0.278 2.24,0.13 3.874,-0.443 l 0.039,-0.02 c 0.772,-0.283 1.337,-0.443 1.695,-0.482 1.656,0.051 3.371,0.73 5.146,2.043 l 0.018,0.02 c 1.624,1.237 2.57,2.516 2.833,3.835 0.097,0.723 0.438,1.307 1.021,1.754 0.584,0.451 1.239,0.632 1.966,0.539 0.723,-0.097 1.307,-0.437 1.754,-1.021 0.45,-0.584 0.631,-1.239 0.539,-1.967 -0.22,-2.344 -1.549,-4.559 -3.988,-6.648 0.348,0.039 0.707,0.059 1.078,0.059 1.528,0 2.96,-0.275 4.298,-0.829 0.108,0.19 0.225,0.376 0.347,0.56 1.345,2.209 3.521,3.313 6.532,3.314 0.294,0.004 0.583,-0.002 0.867,-0.02 0.229,1.691 1.089,3.13 2.583,4.316 l 0.019,0.019 c 1.515,1.259 3.428,1.888 5.743,1.889 0.578,0.009 1.156,-0.049 1.734,-0.173 0.31,3.942 -0.667,6.859 -2.929,8.747 z m 8.519,-22.7 c -0.044,2.03 -0.925,4.001 -2.641,5.917 h 0.02 c -0.772,0.846 -1.531,1.52 -2.273,2.023 l -0.059,0.038 c -0.049,0.033 -0.094,0.065 -0.135,0.097 -0.751,0.465 -1.496,0.709 -2.235,0.732 -0.963,10e-4 -1.768,-0.236 -2.408,-0.714 l -0.02,-0.019 c -0.411,-0.324 -0.63,-0.723 -0.655,-1.195 -0.002,-0.12 -0.002,-0.217 0,-0.289 0.017,-0.043 0.036,-0.088 0.057,-0.135 0.077,-0.151 0.141,-0.306 0.193,-0.463 1.421,-1.007 2.693,-2.414 3.816,-4.219 l 0.018,-0.02 c 1.351,-2.225 2.231,-4.576 2.641,-7.053 0.091,-0.061 0.18,-0.131 0.27,-0.212 l 0.02,0.019 c 0.845,0.025 1.576,0.385 2.196,1.08 0.755,1.02 1.153,2.478 1.196,4.374 v 0.039 z"
     id="path2"
     inkscape:connector-curvature="0" /></svg>