<?xml version="1.0" encoding="UTF-8" standalone="no"?>
<svg
   xmlns:dc="http://purl.org/dc/elements/1.1/"
   xmlns:cc="http://creativecommons.org/ns#"
   xmlns:rdf="http://www.w3.org/1999/02/22-rdf-syntax-ns#"
   xmlns:svg="http://www.w3.org/2000/svg"
   xmlns="http://www.w3.org/2000/svg"
   xmlns:sodipodi="http://sodipodi.sourceforge.net/DTD/sodipodi-0.dtd"
   xmlns:inkscape="http://www.inkscape.org/namespaces/inkscape"
   version="1.1"
   x="0px"
   y="0px"
   viewBox="0 0 70 90"
   enable-background="new 0 0 90 90"
   xml:space="preserve"
   id="svg8"
   sodipodi:docname="scissor.svg"
   inkscape:version="0.92.5 (2060ec1f9f, 2020-04-08)"
   width="70"
   height="90"><metadata
     id="metadata14"><rdf:RDF><cc:Work
         rdf:about=""><dc:format>image/svg+xml</dc:format><dc:type
           rdf:resource="http://purl.org/dc/dcmitype/StillImage" /><dc:title></dc:title></cc:Work></rdf:RDF></metadata><defs
     id="defs12" /><sodipodi:namedview
     pagecolor="#ffffff"
     bordercolor="#666666"
     borderopacity="1"
     objecttolerance="10"
     gridtolerance="10"
     guidetolerance="10"
     inkscape:pageopacity="0"
     inkscape:pageshadow="2"
     inkscape:window-width="1920"
     inkscape:window-height="1031"
     id="namedview10"
     showgrid="false"
     inkscape:zoom="2.0977778"
     inkscape:cx="-15.301906"
     inkscape:cy="56.250001"
     inkscape:window-x="0"
     inkscape:window-y="25"
     inkscape:window-maximized="1"
     inkscape:current-layer="svg8" /><path
     d="m 44.583342,85.281019 c 4.128,-1.322 6.277,-4.646 6.446,-9.975 0.006,-0.168 -0.005,-0.332 -0.033,-0.49 0.693,-0.457 1.36,-0.998 2.003,-1.625 2.421,-2.34 3.624,-5.09 3.608,-8.252 0.007,-0.32 -0.048,-0.83 -0.163,-1.525 -0.057,-0.352 -0.09,-0.576 -0.099,-0.674 0,-0.063 0,-0.121 0,-0.18 1.052,-0.564 2.106,-1.357 3.166,-2.379 l 0.016,-0.016 c 2.563,-2.459 3.82,-5.133 3.773,-8.023 -0.011,-2.523 -0.715,-4.732 -2.116,-6.627 -1.603,-2.18 -3.467,-3.23 -5.594,-3.151 -0.036,0 -0.075,0 -0.115,0 -0.092,-2.759 -0.83,-5.275 -2.214,-7.546 l -0.018,-0.017 c -1.905,-3.037 -4.229,-4.509 -6.972,-4.413 -0.947,-0.018 -1.859,0.134 -2.741,0.46 0.506,-2.699 0.942,-5.455 1.313,-8.269 0.763,-5.816 0.981,-9.764 0.656,-11.845 -0.006,-0.01 -0.012,-0.022 -0.017,-0.033 -0.418,-2.6980004 -1.922,-4.7710004 -4.511,-6.2180004 l 0.016,0.017 c -2.55,-1.526 -5.431,-1.494 -8.646,0.099 -3.163,1.287 -5.006,5.4550004 -5.528,12.5010004 -0.007,0.083 -0.012,0.165 -0.017,0.247 -1.519,-4.924 -3.429,-7.9210004 -5.725,-8.9910004 l -0.015,-0.017 c -3.199,-1.72 -5.775,-1.954 -7.726,-0.706 -1.889,1.016 -3.189,2.5420004 -3.9049997,4.5770004 v -0.032 c -0.6460001,1.733 -0.9300001,3.706 -0.8530001,5.922 v 0.033 c 0.018,2.013 1.0630001,6.039 3.1319998,12.074 1.618,4.726 3.193,8.647 4.726,11.763 -1.395,0.778 -2.815,1.861 -4.265,3.248 -3.6849998,3.529 -5.5039998,7.412 -5.4639998,11.648 -0.079,2.996 1.426,6.402 4.5119998,10.221 1.756,2.262 4.462,4.152 8.12,5.678 -0.479,0.92 -0.698,1.844 -0.656,2.771 -0.13,3.387 1.876,6.111 6.021,8.17 2.843,1.4 5.972,2.314 9.385,2.74 3.488,0.439 6.988,0.05 10.5,-1.165 z m 8.71,-33.187 v -0.018 c 0.803,-1.533 1.387,-3.141 1.757,-4.822 0.188,-0.092 0.37,-0.211 0.541,-0.361 0.715,0.078 1.365,0.516 1.953,1.313 0.829,1.125 1.238,2.436 1.23,3.938 -0.047,1.697 -0.84,3.283 -2.38,4.758 l -0.016,0.016 c -1.413,1.363 -2.791,2.08 -4.136,2.15 -0.806,0 -1.489,-0.201 -2.051,-0.607 l -0.016,-0.016 c -0.334,-0.277 -0.508,-0.615 -0.524,-1.018 -10e-4,-0.188 -10e-4,-0.313 0,-0.377 0.004,-0.02 0.01,-0.035 0.017,-0.051 v 0.066 c 0.126,-0.256 0.203,-0.514 0.229,-0.771 1.285,-0.948 2.416,-2.349 3.396,-4.2 z m -26.591,27.545 c -2.204,-1.092 -3.369,-2.459 -3.496,-4.102 0.054,-0.4 0.24,-0.811 0.558,-1.23 1.15,0.332 2.365,0.639 3.643,0.92 0.608,0.131 1.177,0.027 1.706,-0.313 0.53,-0.336 0.864,-0.807 1.001,-1.41 0.132,-0.609 0.028,-1.18 -0.311,-1.707 -0.336,-0.529 -0.807,-0.863 -1.412,-1.002 -6.635,-1.453 -11.19,-3.641 -13.665,-6.561 -2.252,-2.789 -3.417,-5.244 -3.496,-7.367 0.046,-3.025 1.402,-5.814 4.069,-8.367 h -0.017 c 1.693,-1.619 3.329,-2.707 4.905,-3.264 0.017,-0.006 0.033,-0.012 0.049,-0.018 0.608,-0.17 1.215,-0.26 1.821,-0.262 1.042,0 1.894,0.225 2.56,0.672 0.508,0.393 0.749,0.947 0.721,1.658 -0.027,1.072 -0.476,2.051 -1.344,2.936 -1.428,1.441 -2.456,2.496 -3.085,3.166 -0.232,0.09 -0.452,0.229 -0.657,0.41 -0.431,0.389 -0.676,0.871 -0.738,1.443 -0.064,0.578 0.073,1.104 0.41,1.576 0.344,0.469 0.798,0.764 1.362,0.885 0.799,0.24 1.904,0.119 3.313,-0.359 0.015,-0.014 0.032,-0.023 0.05,-0.033 0.658,-0.242 1.139,-0.379 1.443,-0.41 1.41,0.041 2.87,0.631 4.381,1.771 1.382,1.049 2.19,2.143 2.428,3.281 0.09,0.611 0.385,1.105 0.886,1.477 0.505,0.381 1.069,0.527 1.69,0.443 0.611,-0.09 1.104,-0.385 1.477,-0.887 0.379,-0.506 0.527,-1.068 0.442,-1.689 -0.243,-2.23 -1.644,-4.309 -4.2,-6.234 -1.771,-1.34 -3.511,-2.182 -5.217,-2.525 1.281,-1.596 1.91,-3.346 1.887,-5.25 -0.022,-2.256 -0.864,-4.017 -2.526,-5.283 l -0.033,-0.017 c -1.346,-1.039 -3.097,-1.559 -5.25,-1.559 -0.425,-10e-4 -0.852,0.021 -1.279,0.065 -1.542,-3.044 -3.133,-6.965 -4.774,-11.763 -1.855,-5.393 -2.823,-8.969 -2.905,-10.729 v -0.032 c -0.052,-1.578 0.145,-2.983 0.591,-4.217 v -0.033 c 0.334,-0.938 0.937,-1.644 1.805,-2.115 0.842,-0.287 1.984,-0.04 3.429,0.738 l -0.015,-0.017 c 1.757,1.169 3.255,4.439 4.494,9.811 l -0.016,-0.016 c 1.437,6.342 3.027,12.319 4.774,17.932 0.176,0.559 0.521,0.985 1.033,1.28 0.512,0.3 1.054,0.387 1.624,0.263 0.572,-0.134 1.025,-0.446 1.363,-0.937 0.341,-0.482 0.472,-1.012 0.393,-1.591 -1.22,-8.668 -1.629,-15.882 -1.23,-21.639 0.353,-4.776 1.354,-7.6960001 3.002,-8.7610004 1.644,-0.814 3.112,-0.891 4.414,-0.229 l 0.016,0.016 c 1.262,0.697 2.011,1.6870004 2.248,2.9690004 l -0.018,-0.032 c 0.244,1.856 0.025,5.39 -0.655,10.598 -0.707,5.378 -1.657,10.54 -2.854,15.486 -0.151,0.46 -0.266,0.941 -0.345,1.445 -0.007,0.041 -0.012,0.079 -0.017,0.114 -0.021,0.202 -0.044,0.416 -0.065,0.641 -0.065,0.62 0.099,1.173 0.492,1.657 0.396,0.483 0.906,0.758 1.526,0.819 0.619,0.065 1.172,-0.099 1.655,-0.491 0.485,-0.398 0.758,-0.907 0.821,-1.526 0.018,-0.171 0.035,-0.335 0.05,-0.492 0.007,-0.038 0.012,-0.076 0.017,-0.115 0.035,-0.182 0.078,-0.362 0.131,-0.542 0.022,-0.049 0.044,-0.104 0.065,-0.164 0.281,-0.809 0.747,-1.58 1.395,-2.313 l 0.017,-0.016 c 0.924,-1.005 1.936,-1.529 3.035,-1.576 1.193,0.095 2.237,0.854 3.134,2.281 l -0.017,-0.017 c 1.055,1.725 1.579,3.649 1.575,5.775 0.005,2.531 -0.553,4.873 -1.674,7.021 v -0.016 c -1.093,2.066 -2.472,3.154 -4.134,3.264 -0.626,0.018 -1.08,-0.236 -1.363,-0.754 l 0.018,0.016 c -0.372,-0.76 -0.558,-1.75 -0.558,-2.969 0.051,-0.422 0.335,-1.309 0.853,-2.658 0.006,-0.016 0.013,-0.031 0.016,-0.049 0.539,-1.311 0.894,-2.104 1.066,-2.379 0.413,-0.475 0.599,-1.021 0.558,-1.64 -0.047,-0.621 -0.31,-1.134 -0.786,-1.542 -0.474,-0.414 -1.021,-0.599 -1.641,-0.558 -0.619,0.049 -1.133,0.312 -1.542,0.788 -0.394,0.376 -1.017,1.602 -1.87,3.676 -0.005,0.018 -0.01,0.033 -0.017,0.049 -0.831,2.168 -1.218,3.605 -1.165,4.314 -0.002,2.105 0.359,3.807 1.083,5.102 l 0.017,0.018 c 1.112,2.055 2.879,3.092 5.298,3.117 0.073,1.674 0.813,3.08 2.215,4.215 l 0.018,0.018 c 1.238,1.006 2.753,1.541 4.543,1.607 0.021,0.162 0.049,0.348 0.082,0.559 v 0.016 c 0.06,0.354 0.093,0.611 0.099,0.771 -0.015,1.912 -0.759,3.58 -2.23,5.004 -1.408,1.375 -3.005,2.113 -4.79,2.213 -0.626,0.031 -1.149,0.277 -1.575,0.74 -0.424,0.461 -0.62,1.004 -0.591,1.623 0.029,0.625 0.275,1.15 0.737,1.574 0.462,0.424 1.003,0.621 1.624,0.592 0.379,-0.016 0.751,-0.049 1.117,-0.098 -0.364,2.232 -1.453,3.709 -3.265,4.428 -2.833,0.975 -5.653,1.285 -8.465,0.938 -2.89,-0.365 -5.537,-1.137 -7.942,-2.316 z"
     id="path2"
     inkscape:connector-curvature="0" /></svg>